<svg width="105" height="86" viewBox="0 0 105 86" fill="none" xmlns="http://www.w3.org/2000/svg">
<path d="M36.2361 84.2217C31.6995 84.2217 27.3858 82.5192 24.0919 79.4271L2.43686 59.104C1.90784 58.6068 1.60506 57.9366 1.5851 57.2138C1.56514 56.4926 1.83131 55.806 2.33372 55.2808C2.85442 54.7374 3.55812 54.4378 4.31672 54.4378C5.01876 54.4378 5.68586 54.7012 6.19659 55.1787L15.0419 63.4788L18.9813 59.3675L2.01431 43.4489C1.48528 42.9516 1.18251 42.2815 1.16255 41.5586C1.14258 40.8375 1.40876 40.1509 1.91116 39.6256C2.43187 39.0823 3.13557 38.7826 3.89417 38.7826C4.59621 38.7826 5.26331 39.046 5.77403 39.5235L22.7394 55.4454L26.6788 51.3341L7.00676 32.8732C6.47774 32.376 6.17496 31.7058 6.155 30.983C6.13504 30.2618 6.40121 29.5752 6.90362 29.05C7.42432 28.5066 8.12802 28.207 8.88662 28.207C9.58866 28.207 10.2558 28.4704 10.7665 28.9479L30.4385 47.4087L34.3779 43.2974L20.1192 29.9161C19.0262 28.8903 18.9797 27.1763 20.0161 26.0945C20.5368 25.5511 21.2405 25.2515 21.9991 25.2515C22.7011 25.2515 23.3682 25.5149 23.879 25.9924L50.6961 50.1222L50.7577 53.6968L56.3274 61.5952C56.3257 61.638 56.3224 61.6792 56.3191 61.7187L56.3074 61.8274L56.3208 61.936C56.9646 67.1374 55.2494 72.2976 51.6144 76.0929L49.0492 78.7717C45.682 82.2854 41.1338 84.2201 36.2411 84.2201L36.2361 84.2217Z" fill="white"/>
<path d="M21.9946 26.2408C22.4405 26.2408 22.863 26.4071 23.1874 26.7118L23.2024 26.7266L23.2174 26.7397L49.7002 50.5682L49.7484 53.4151L49.7584 54.0177L50.1078 54.5117L55.3032 61.8766L55.3248 62.0561C55.932 66.9643 54.315 71.8331 50.8847 75.4127L48.3194 78.0916C46.719 79.7628 44.8292 81.0586 42.7048 81.9428C40.6519 82.7973 38.4742 83.232 36.235 83.232C31.9546 83.232 27.8854 81.625 24.7762 78.7074L3.1228 58.3876C2.78676 58.0715 2.59378 57.6467 2.58213 57.1889C2.56883 56.7312 2.73851 56.2965 3.05792 55.9623C3.38732 55.6181 3.83482 55.4271 4.3156 55.4271C4.76145 55.4271 5.18566 55.5934 5.5084 55.898L13.6284 63.5182L15.0774 64.8782L16.4515 63.4441L19.0168 60.7652L20.3909 59.3311L18.9419 57.971L2.70025 42.7308C2.3642 42.4147 2.17123 41.9899 2.15958 41.5321C2.14627 41.0744 2.31596 40.6397 2.63537 40.3055C2.96476 39.9613 3.41227 39.7703 3.89305 39.7703C4.33889 39.7703 4.76311 39.9366 5.08585 40.2412L21.3275 55.4831L22.7765 56.8432L24.1507 55.409L26.7159 52.7301L28.0901 51.296L26.6411 49.936L7.6927 32.1535C7.35666 31.8374 7.16368 31.4126 7.15203 30.9548C7.13873 30.4971 7.30841 30.0624 7.62782 29.7282C7.95721 29.3841 8.40472 29.1947 8.8855 29.1947C9.33134 29.1947 9.75556 29.361 10.0783 29.6656L29.0267 47.4481L30.4757 48.8081L31.8498 47.374L34.4151 44.6951L35.7892 43.261L34.3402 41.9009L20.8052 29.1996C20.4691 28.8835 20.2761 28.4587 20.2645 28.001C20.2512 27.5432 20.4209 27.1086 20.7403 26.7743C21.0697 26.4302 21.5172 26.2408 21.998 26.2408M21.9946 24.265C21.0065 24.265 20.0216 24.6503 19.288 25.4159C17.8689 26.8978 17.9355 29.2326 19.4294 30.6354L32.9644 43.3367L30.3991 46.0156L11.4508 28.2331C10.7288 27.5564 9.80713 27.2205 8.88384 27.2205C7.89566 27.2205 6.90915 27.6058 6.17717 28.3714C4.75812 29.8533 4.82466 32.1881 6.31857 33.5909L25.2669 51.3734L22.7017 54.0523L6.45998 38.8104C5.73798 38.1337 4.81468 37.7978 3.89305 37.7978C2.90487 37.7978 1.91836 38.1831 1.18638 38.9487C-0.23267 40.4306 -0.166126 42.7654 1.32778 44.1666L17.5695 59.4084L15.0042 62.0873L6.88419 54.4672C6.16219 53.7905 5.2389 53.4546 4.31727 53.4546C3.32909 53.4546 2.34258 53.8399 1.61059 54.6055C0.191547 56.0874 0.258091 58.4222 1.752 59.8234L23.407 80.1448C27.0154 83.5317 31.6319 85.2111 36.2383 85.2111C41.1759 85.2111 46.1051 83.2814 49.7701 79.4549L52.3353 76.776C56.3196 72.6169 57.9633 67.1026 57.3078 61.819C57.3244 61.651 57.3278 61.4765 57.3311 61.3019L51.7464 53.3838L51.6832 49.6841L24.5632 25.2809C23.8412 24.6042 22.9179 24.2683 21.9963 24.2683L21.9946 24.265Z" fill="#00B55E"/>
<path d="M47.6025 35.9401C47.5909 33.3155 49.6803 31.091 52.3238 30.9099C54.8658 30.737 57.0584 32.5252 57.3728 35.0213L58.1331 41.1595L58.6987 45.7155L80.4752 25.2788C81.9691 23.876 84.3314 23.9385 85.7471 25.4171C87.1661 26.899 87.0996 29.2338 85.6057 30.6366L72.0707 43.3379L74.6359 46.0168L93.5843 28.2343C95.0782 26.8315 97.4405 26.894 98.8579 28.3726C100.277 29.8545 100.21 32.1893 98.7165 33.5921L79.7681 51.3746L82.3334 54.0535L98.5751 38.8116C100.069 37.4088 102.431 37.4713 103.849 38.9499C105.266 40.4285 105.201 42.7665 103.707 44.1677L87.4656 59.4096L90.0309 62.0885L98.1509 54.4684C99.6448 53.0656 102.007 53.1281 103.424 54.6067C104.844 56.0886 104.777 58.4233 103.283 59.8245L81.628 80.146C74.1518 87.1618 62.3519 86.8522 55.2634 79.4561L52.6981 76.7772C48.7138 72.618 47.0701 67.1038 47.7256 61.8201C47.709 61.6522 47.7056 61.4776 47.7023 61.3031L47.5992 35.9433L47.6025 35.9401Z" fill="#00B55E"/>
<path d="M52.4712 16.1127C51.3183 13.5672 49.2438 11.514 46.6719 10.373C49.2438 9.23192 51.3183 7.17871 52.4712 4.63318C53.624 7.17871 55.6985 9.23192 58.2705 10.373C55.6985 11.514 53.624 13.5672 52.4712 16.1127Z" fill="white"/>
<path d="M52.4722 6.69477C53.4338 8.16512 54.7031 9.42141 56.1887 10.3731C54.7031 11.3248 53.4338 12.5811 52.4722 14.0514C51.5107 12.5811 50.2414 11.3248 48.7558 10.3731C50.2414 9.42141 51.5107 8.16512 52.4722 6.69477ZM52.4722 0C52.4722 5.72826 47.7792 10.3731 41.9916 10.3731C47.7792 10.3731 52.4722 15.018 52.4722 20.7462C52.4722 15.018 57.1652 10.3731 62.9529 10.3731C57.1652 10.3731 52.4722 5.72826 52.4722 0Z" fill="#00B55E"/>
<path d="M38.8293 27.6384C37.6765 25.0929 35.6019 23.0396 33.03 21.8986C35.6019 20.7576 37.6765 18.7043 38.8293 16.1588C39.9822 18.7043 42.0567 20.7576 44.6286 21.8986C42.0567 23.0396 39.9822 25.0929 38.8293 27.6384Z" fill="white"/>
<path d="M38.8292 18.2204C39.7907 19.6908 41.0601 20.947 42.5456 21.8987C41.0601 22.8504 39.7907 24.1067 38.8292 25.5771C37.8676 24.1067 36.5983 22.8504 35.1127 21.8987C36.5983 20.947 37.8676 19.6908 38.8292 18.2204ZM38.8292 11.5256C38.8292 17.2539 34.1362 21.8987 28.3485 21.8987C34.1362 21.8987 38.8292 26.5436 38.8292 32.2718C38.8292 26.5436 43.5222 21.8987 49.3098 21.8987C43.5222 21.8987 38.8292 17.2539 38.8292 11.5256Z" fill="#00B55E"/>
<path d="M66.7776 27.6384C65.6247 25.0929 63.5502 23.0396 60.9783 21.8986C63.5502 20.7576 65.6247 18.7043 66.7776 16.1588C67.9304 18.7043 70.0049 20.7576 72.5769 21.8986C70.0049 23.0396 67.9304 25.0929 66.7776 27.6384Z" fill="white"/>
<path d="M66.7777 18.2204C67.7392 19.6908 69.0085 20.947 70.4941 21.8987C69.0085 22.8504 67.7392 24.1067 66.7777 25.5771C65.8161 24.1067 64.5468 22.8504 63.0612 21.8987C64.5468 20.947 65.8161 19.6908 66.7777 18.2204ZM66.7777 11.5256C66.7777 17.2539 62.0846 21.8987 56.297 21.8987C62.0846 21.8987 66.7777 26.5436 66.7777 32.2718C66.7777 26.5436 71.4707 21.8987 77.2583 21.8987C71.4707 21.8987 66.7777 17.2539 66.7777 11.5256Z" fill="#00B55E"/>
</svg>
